<svg width="40" height="14" viewBox="0 0 40 14" fill="none" xmlns="http://www.w3.org/2000/svg">
<path d="M40 0L10.7364 12.4585C8.30975 13.4851 6.27141 14 4.62306 14C2.75638 14 1.40137 13.3467 0.561361 12.0386C0.0330233 11.1987 -0.121978 10.1338 0.0946904 8.84228C0.311359 7.55077 0.88803 6.17593 1.82137 4.71277C2.59971 3.52958 3.87472 1.97476 5.64973 0.0466609C5.04767 0.994325 4.60618 2.03485 4.34306 3.12629C3.87639 5.11772 4.29639 6.57922 5.60307 7.51244C6.22474 7.94739 7.07974 8.16569 8.16975 8.16569C9.03976 8.16569 10.0198 8.02571 11.1098 7.74574L40 0Z" fill="black" fill-opacity="0.3"/>
</svg>
