<svg width="11" height="11" viewBox="0 0 11 11" fill="none" xmlns="http://www.w3.org/2000/svg">
<path d="M8.42188 0H2.57812C1.15427 0 0 1.15427 0 2.57812V8.42188C0 9.84573 1.15427 11 2.57812 11H8.42188C9.84573 11 11 9.84573 11 8.42188V2.57812C11 1.15427 9.84573 0 8.42188 0Z" fill="url(#paint0_radial_1_147)"/>
<path d="M8.42188 0H2.57812C1.15427 0 0 1.15427 0 2.57812V8.42188C0 9.84573 1.15427 11 2.57812 11H8.42188C9.84573 11 11 9.84573 11 8.42188V2.57812C11 1.15427 9.84573 0 8.42188 0Z" fill="url(#paint1_radial_1_147)"/>
<path d="M5.50039 1.20312C4.33344 1.20312 4.18696 1.20824 3.72866 1.22908C3.27121 1.25005 2.95896 1.32245 2.68576 1.42871C2.40311 1.53845 2.16339 1.68528 1.92457 1.92418C1.68554 2.16305 1.53871 2.40277 1.42863 2.68529C1.32206 2.95857 1.24957 3.27095 1.22899 3.72818C1.2085 4.18653 1.20312 4.33306 1.20312 5.50004C1.20312 6.66703 1.20828 6.81304 1.22908 7.27134C1.25013 7.72879 1.32254 8.04104 1.42871 8.31424C1.53854 8.59689 1.68536 8.83661 1.92427 9.07543C2.16305 9.31447 2.40277 9.46163 2.6852 9.57138C2.95861 9.67764 3.27091 9.75004 3.72827 9.77101C4.18662 9.79185 4.33297 9.79696 5.49987 9.79696C6.66695 9.79696 6.81295 9.79185 7.27126 9.77101C7.7287 9.75004 8.0413 9.67764 8.31471 9.57138C8.59723 9.46163 8.83661 9.31447 9.07534 9.07543C9.31438 8.83661 9.46116 8.59689 9.57129 8.31437C9.67691 8.04104 9.74944 7.7287 9.77092 7.27143C9.7915 6.81313 9.79688 6.66703 9.79688 5.50004C9.79688 4.33306 9.7915 4.18662 9.77092 3.72827C9.74944 3.27082 9.67691 2.95861 9.57129 2.68542C9.46116 2.40277 9.31438 2.16305 9.07534 1.92418C8.83635 1.68519 8.59732 1.53837 8.31445 1.42875C8.04053 1.32245 7.7281 1.25 7.27066 1.22908C6.81231 1.20824 6.66639 1.20312 5.49905 1.20312H5.50039ZM5.11491 1.97746C5.22934 1.97729 5.357 1.97746 5.50039 1.97746C6.6477 1.97746 6.78365 1.98159 7.23671 2.00217C7.65566 2.02134 7.88305 2.09133 8.03451 2.15016C8.23505 2.22802 8.378 2.32113 8.52831 2.47156C8.6787 2.62195 8.77177 2.76517 8.84984 2.9657C8.90867 3.11695 8.97875 3.34434 8.99783 3.76329C9.01841 4.21627 9.02288 4.3523 9.02288 5.49905C9.02288 6.6458 9.01841 6.78189 8.99783 7.23482C8.97866 7.65377 8.90867 7.88116 8.84984 8.03245C8.77198 8.23299 8.6787 8.37577 8.52831 8.52607C8.37792 8.67647 8.23513 8.76954 8.03451 8.84744C7.88322 8.90652 7.65566 8.97634 7.23671 8.99551C6.78373 9.01609 6.6477 9.02056 5.50039 9.02056C4.35304 9.02056 4.21704 9.01609 3.76411 8.99551C3.34516 8.97617 3.11777 8.90618 2.96618 8.84735C2.76568 8.76945 2.62243 8.67638 2.47204 8.52599C2.32164 8.3756 2.22857 8.23273 2.1505 8.03211C2.09168 7.88081 2.02159 7.65342 2.00252 7.23448C1.98193 6.7815 1.97781 6.64546 1.97781 5.49798C1.97781 4.35054 1.98193 4.21519 2.00252 3.76222C2.02168 3.34327 2.09168 3.11588 2.1505 2.96441C2.2284 2.76388 2.32164 2.62066 2.47208 2.47027C2.62247 2.31988 2.76568 2.22677 2.96622 2.14874C3.11768 2.08966 3.34516 2.01983 3.76411 2.00058C4.16049 1.98266 4.31411 1.97729 5.11491 1.97639V1.97746ZM7.79406 2.69092C7.50939 2.69092 7.27843 2.92166 7.27843 3.20637C7.27843 3.49104 7.50939 3.722 7.79406 3.722C8.07873 3.722 8.30968 3.49104 8.30968 3.20637C8.30968 2.9217 8.07873 2.69075 7.79406 2.69075V2.69092ZM5.50039 3.29338C4.28179 3.29338 3.29377 4.28141 3.29377 5.50004C3.29377 6.71868 4.28179 7.70623 5.50039 7.70623C6.71902 7.70623 7.7067 6.71868 7.7067 5.50004C7.7067 4.28145 6.71894 3.29338 5.5003 3.29338H5.50039ZM5.50039 4.06772C6.2914 4.06772 6.93271 4.70895 6.93271 5.50004C6.93271 6.29106 6.2914 6.93236 5.50039 6.93236C4.70933 6.93236 4.06811 6.29106 4.06811 5.50004C4.06811 4.70895 4.70933 4.06772 5.50039 4.06772Z" fill="white"/>
<defs>
<radialGradient id="paint0_radial_1_147" cx="0" cy="0" r="1" gradientUnits="userSpaceOnUse" gradientTransform="translate(2.92187 11.8472) rotate(-90) scale(10.9018 10.1396)">
<stop stop-color="#FFDD55"/>
<stop offset="0.1" stop-color="#FFDD55"/>
<stop offset="0.5" stop-color="#FF543E"/>
<stop offset="1" stop-color="#C837AB"/>
</radialGradient>
<radialGradient id="paint1_radial_1_147" cx="0" cy="0" r="1" gradientUnits="userSpaceOnUse" gradientTransform="translate(-1.84254 0.792387) rotate(78.681) scale(4.87317 20.0874)">
<stop stop-color="#3771C8"/>
<stop offset="0.128" stop-color="#3771C8"/>
<stop offset="1" stop-color="#6600FF" stop-opacity="0"/>
</radialGradient>
</defs>
</svg>
